<svg version="1.1" id="el_MhygtD1Wn" xmlns="http://www.w3.org/2000/svg" xmlns:xlink="http://www.w3.org/1999/xlink" x="0px" y="0px" viewBox="0 0 512 512" style="enable-background:new 0 0 512.002 512.002;" xml:space="preserve"><style type="text/css">@-webkit-keyframes el_kkn6NLvaQ4u_qOLAhUb7-_Animation {
    0% {
        -webkit-transform: scale(0, 0);
                transform: scale(0, 0)
    }
    50.56% {
        -webkit-transform: scale(1, 1);
                transform: scale(1, 1)
    }
    100% {
        -webkit-transform: scale(1, 1);
                transform: scale(1, 1)
    }
}
@keyframes el_kkn6NLvaQ4u_qOLAhUb7-_Animation {
    0% {
        -webkit-transform: scale(0, 0);
                transform: scale(0, 0)
    }
    50.56% {
        -webkit-transform: scale(1, 1);
                transform: scale(1, 1)
    }
    100% {
        -webkit-transform: scale(1, 1);
                transform: scale(1, 1)
    }
}
@-webkit-keyframes el_kkn6NLvaQ4u_Animation {
    0% {
        opacity: 0
    }
    42.22% {
        opacity: 1
    }
    100% {
        opacity: 1
    }
}
@keyframes el_kkn6NLvaQ4u_Animation {
    0% {
        opacity: 0
    }
    42.22% {
        opacity: 1
    }
    100% {
        opacity: 1
    }
}
@-webkit-keyframes el_K6-ZeaMsWjG_0vIdtyPDK_Animation {
    0% {
        -webkit-transform: scale(0, 0);
                transform: scale(0, 0)
    }
    76.11% {
        -webkit-transform: scale(1, 1);
                transform: scale(1, 1)
    }
    100% {
        -webkit-transform: scale(1, 1);
                transform: scale(1, 1)
    }
}
@keyframes el_K6-ZeaMsWjG_0vIdtyPDK_Animation {
    0% {
        -webkit-transform: scale(0, 0);
                transform: scale(0, 0)
    }
    76.11% {
        -webkit-transform: scale(1, 1);
                transform: scale(1, 1)
    }
    100% {
        -webkit-transform: scale(1, 1);
                transform: scale(1, 1)
    }
}
@-webkit-keyframes el_K6-ZeaMsWjG_Animation {
    0% {
        opacity: 0
    }
    66.67% {
        opacity: 1
    }
    100% {
        opacity: 1
    }
}
@keyframes el_K6-ZeaMsWjG_Animation {
    0% {
        opacity: 0
    }
    66.67% {
        opacity: 1
    }
    100% {
        opacity: 1
    }
}
@-webkit-keyframes el_ncY60zfhSGg_wA2QBNzaD_Animation {
    0% {
        -webkit-transform: scale(0, 0);
                transform: scale(0, 0)
    }
    42.22% {
        -webkit-transform: scale(1, 1);
                transform: scale(1, 1)
    }
    100% {
        -webkit-transform: scale(1, 1);
                transform: scale(1, 1)
    }
}
@keyframes el_ncY60zfhSGg_wA2QBNzaD_Animation {
    0% {
        -webkit-transform: scale(0, 0);
                transform: scale(0, 0)
    }
    42.22% {
        -webkit-transform: scale(1, 1);
                transform: scale(1, 1)
    }
    100% {
        -webkit-transform: scale(1, 1);
                transform: scale(1, 1)
    }
}
@-webkit-keyframes el_ncY60zfhSGg_Animation {
    0% {
        opacity: 0
    }
    33.33% {
        opacity: 1
    }
    100% {
        opacity: 1
    }
}
@keyframes el_ncY60zfhSGg_Animation {
    0% {
        opacity: 0
    }
    33.33% {
        opacity: 1
    }
    100% {
        opacity: 1
    }
}
@-webkit-keyframes el_F74_5LJbhyC_MLaevwzuW_Animation {
    0% {
        -webkit-transform: scale(0, 0);
                transform: scale(0, 0)
    }
    58.89% {
        -webkit-transform: scale(1, 1);
                transform: scale(1, 1)
    }
    100% {
        -webkit-transform: scale(1, 1);
                transform: scale(1, 1)
    }
}
@keyframes el_F74_5LJbhyC_MLaevwzuW_Animation {
    0% {
        -webkit-transform: scale(0, 0);
                transform: scale(0, 0)
    }
    58.89% {
        -webkit-transform: scale(1, 1);
                transform: scale(1, 1)
    }
    100% {
        -webkit-transform: scale(1, 1);
                transform: scale(1, 1)
    }
}
@-webkit-keyframes el_F74_5LJbhyC_Animation {
    0% {
        opacity: 0
    }
    49.44% {
        opacity: 1
    }
    100% {
        opacity: 1
    }
}
@keyframes el_F74_5LJbhyC_Animation {
    0% {
        opacity: 0
    }
    49.44% {
        opacity: 1
    }
    100% {
        opacity: 1
    }
}
@-webkit-keyframes el_GSP86Uejf40_7l0r_Nz0a_Animation {
    0% {
        -webkit-transform: scale(0, 0);
                transform: scale(0, 0)
    }
    100% {
        -webkit-transform: scale(1, 1);
                transform: scale(1, 1)
    }
}
@keyframes el_GSP86Uejf40_7l0r_Nz0a_Animation {
    0% {
        -webkit-transform: scale(0, 0);
                transform: scale(0, 0)
    }
    100% {
        -webkit-transform: scale(1, 1);
                transform: scale(1, 1)
    }
}
@-webkit-keyframes el_GSP86Uejf40_Animation {
    0% {
        opacity: 0
    }
    100% {
        opacity: 1
    }
}
@keyframes el_GSP86Uejf40_Animation {
    0% {
        opacity: 0
    }
    100% {
        opacity: 1
    }
}
@-webkit-keyframes el_angcWKLbG4_OP4ZwWNzg_Animation {
    0% {
        -webkit-transform: scale(0, 0);
                transform: scale(0, 0)
    }
    92.78% {
        -webkit-transform: scale(1, 1);
                transform: scale(1, 1)
    }
    100% {
        -webkit-transform: scale(1, 1);
                transform: scale(1, 1)
    }
}
@keyframes el_angcWKLbG4_OP4ZwWNzg_Animation {
    0% {
        -webkit-transform: scale(0, 0);
                transform: scale(0, 0)
    }
    92.78% {
        -webkit-transform: scale(1, 1);
                transform: scale(1, 1)
    }
    100% {
        -webkit-transform: scale(1, 1);
                transform: scale(1, 1)
    }
}
@-webkit-keyframes el_angcWKLbG4_Animation {
    0% {
        opacity: 0
    }
    82.78% {
        opacity: 1
    }
    100% {
        opacity: 1
    }
}
@keyframes el_angcWKLbG4_Animation {
    0% {
        opacity: 0
    }
    82.78% {
        opacity: 1
    }
    100% {
        opacity: 1
    }
}
@-webkit-keyframes el_FznawpWGaT_k1b5_iE_3_Animation {
    0% {
        -webkit-transform: scale(0, 0);
                transform: scale(0, 0)
    }
    100% {
        -webkit-transform: scale(1, 1);
                transform: scale(1, 1)
    }
}
@keyframes el_FznawpWGaT_k1b5_iE_3_Animation {
    0% {
        -webkit-transform: scale(0, 0);
                transform: scale(0, 0)
    }
    100% {
        -webkit-transform: scale(1, 1);
                transform: scale(1, 1)
    }
}
@-webkit-keyframes el_FznawpWGaT_Animation {
    0% {
        opacity: 0
    }
    100% {
        opacity: 1
    }
}
@keyframes el_FznawpWGaT_Animation {
    0% {
        opacity: 0
    }
    100% {
        opacity: 1
    }
}
@-webkit-keyframes el_Lv6jL5RguQ_EmSv6gJPa_Animation {
    0% {
        -webkit-transform: scale(0, 0);
                transform: scale(0, 0)
    }
    75.56% {
        -webkit-transform: scale(1, 1);
                transform: scale(1, 1)
    }
    100% {
        -webkit-transform: scale(1, 1);
                transform: scale(1, 1)
    }
}
@keyframes el_Lv6jL5RguQ_EmSv6gJPa_Animation {
    0% {
        -webkit-transform: scale(0, 0);
                transform: scale(0, 0)
    }
    75.56% {
        -webkit-transform: scale(1, 1);
                transform: scale(1, 1)
    }
    100% {
        -webkit-transform: scale(1, 1);
                transform: scale(1, 1)
    }
}
@-webkit-keyframes el_Lv6jL5RguQ_Animation {
    0% {
        opacity: 0
    }
    66.67% {
        opacity: 1
    }
    100% {
        opacity: 1
    }
}
@keyframes el_Lv6jL5RguQ_Animation {
    0% {
        opacity: 0
    }
    66.67% {
        opacity: 1
    }
    100% {
        opacity: 1
    }
}
@-webkit-keyframes el_uqVVckPI6y_LObT0r1NP_Animation {
    0% {
        -webkit-transform: scale(0, 0);
                transform: scale(0, 0)
    }
    92.78% {
        -webkit-transform: scale(1, 1);
                transform: scale(1, 1)
    }
    100% {
        -webkit-transform: scale(1, 1);
                transform: scale(1, 1)
    }
}
@keyframes el_uqVVckPI6y_LObT0r1NP_Animation {
    0% {
        -webkit-transform: scale(0, 0);
                transform: scale(0, 0)
    }
    92.78% {
        -webkit-transform: scale(1, 1);
                transform: scale(1, 1)
    }
    100% {
        -webkit-transform: scale(1, 1);
                transform: scale(1, 1)
    }
}
@-webkit-keyframes el_uqVVckPI6y_Animation {
    0% {
        opacity: 0
    }
    83.33% {
        opacity: 1
    }
    100% {
        opacity: 1
    }
}
@keyframes el_uqVVckPI6y_Animation {
    0% {
        opacity: 0
    }
    83.33% {
        opacity: 1
    }
    100% {
        opacity: 1
    }
}
@-webkit-keyframes el_TXABU5FkxS_QfsZCE8AI_Animation {
    0% {
        -webkit-transform: scale(0, 0);
                transform: scale(0, 0)
    }
    58.33% {
        -webkit-transform: scale(1, 1);
                transform: scale(1, 1)
    }
    100% {
        -webkit-transform: scale(1, 1);
                transform: scale(1, 1)
    }
}
@keyframes el_TXABU5FkxS_QfsZCE8AI_Animation {
    0% {
        -webkit-transform: scale(0, 0);
                transform: scale(0, 0)
    }
    58.33% {
        -webkit-transform: scale(1, 1);
                transform: scale(1, 1)
    }
    100% {
        -webkit-transform: scale(1, 1);
                transform: scale(1, 1)
    }
}
@-webkit-keyframes el_TXABU5FkxS_Animation {
    0% {
        opacity: 0
    }
    50% {
        opacity: 1
    }
    100% {
        opacity: 1
    }
}
@keyframes el_TXABU5FkxS_Animation {
    0% {
        opacity: 0
    }
    50% {
        opacity: 1
    }
    100% {
        opacity: 1
    }
}
#el_MhygtD1Wn * {
    -webkit-animation-duration: 6s;
            animation-duration: 6s;
    -webkit-animation-iteration-count: infinite;
            animation-iteration-count: infinite;
    -webkit-animation-timing-function: cubic-bezier(0, 0, 1, 1);
            animation-timing-function: cubic-bezier(0, 0, 1, 1)
}
#el_TXABU5FkxS {
    -webkit-animation-name: el_TXABU5FkxS_Animation;
            animation-name: el_TXABU5FkxS_Animation;
    opacity: 1
}
#el_TXABU5FkxS_QfsZCE8AI {
    -webkit-animation-name: el_TXABU5FkxS_QfsZCE8AI_Animation;
            animation-name: el_TXABU5FkxS_QfsZCE8AI_Animation;
    -webkit-transform-origin: 50% 50%;
            transform-origin: 50% 50%;
    transform-box: fill-box;
    -webkit-transform: scale(1, 1);
            transform: scale(1, 1)
}
#el_uqVVckPI6y {
    -webkit-animation-name: el_uqVVckPI6y_Animation;
            animation-name: el_uqVVckPI6y_Animation;
    opacity: 1
}
#el_uqVVckPI6y_LObT0r1NP {
    -webkit-animation-name: el_uqVVckPI6y_LObT0r1NP_Animation;
            animation-name: el_uqVVckPI6y_LObT0r1NP_Animation;
    -webkit-transform-origin: 50% 50%;
            transform-origin: 50% 50%;
    transform-box: fill-box;
    -webkit-transform: scale(1, 1);
            transform: scale(1, 1)
}
#el_Lv6jL5RguQ {
    -webkit-animation-name: el_Lv6jL5RguQ_Animation;
            animation-name: el_Lv6jL5RguQ_Animation;
    opacity: 1
}
#el_Lv6jL5RguQ_EmSv6gJPa {
    -webkit-animation-name: el_Lv6jL5RguQ_EmSv6gJPa_Animation;
            animation-name: el_Lv6jL5RguQ_EmSv6gJPa_Animation;
    -webkit-transform-origin: 50% 50%;
            transform-origin: 50% 50%;
    transform-box: fill-box;
    -webkit-transform: scale(1, 1);
            transform: scale(1, 1)
}
#el_FznawpWGaT {
    -webkit-animation-name: el_FznawpWGaT_Animation;
            animation-name: el_FznawpWGaT_Animation;
    opacity: 1
}
#el_FznawpWGaT_k1b5_iE_3 {
    -webkit-animation-name: el_FznawpWGaT_k1b5_iE_3_Animation;
            animation-name: el_FznawpWGaT_k1b5_iE_3_Animation;
    -webkit-transform-origin: 50% 50%;
            transform-origin: 50% 50%;
    transform-box: fill-box;
    -webkit-transform: scale(1, 1);
            transform: scale(1, 1)
}
#el_angcWKLbG4 {
    -webkit-animation-name: el_angcWKLbG4_Animation;
            animation-name: el_angcWKLbG4_Animation;
    opacity: 1
}
#el_angcWKLbG4_OP4ZwWNzg {
    -webkit-animation-name: el_angcWKLbG4_OP4ZwWNzg_Animation;
            animation-name: el_angcWKLbG4_OP4ZwWNzg_Animation;
    -webkit-transform-origin: 50% 50%;
            transform-origin: 50% 50%;
    transform-box: fill-box;
    -webkit-transform: scale(1, 1);
            transform: scale(1, 1)
}
#el_GSP86Uejf40 {
    -webkit-animation-name: el_GSP86Uejf40_Animation;
            animation-name: el_GSP86Uejf40_Animation;
    opacity: 1
}
#el_GSP86Uejf40_7l0r_Nz0a {
    -webkit-animation-name: el_GSP86Uejf40_7l0r_Nz0a_Animation;
            animation-name: el_GSP86Uejf40_7l0r_Nz0a_Animation;
    -webkit-transform-origin: 50% 50%;
            transform-origin: 50% 50%;
    transform-box: fill-box;
    -webkit-transform: scale(1, 1);
            transform: scale(1, 1)
}
#el_F74_5LJbhyC {
    -webkit-animation-name: el_F74_5LJbhyC_Animation;
            animation-name: el_F74_5LJbhyC_Animation;
    opacity: 1
}
#el_F74_5LJbhyC_MLaevwzuW {
    -webkit-animation-name: el_F74_5LJbhyC_MLaevwzuW_Animation;
            animation-name: el_F74_5LJbhyC_MLaevwzuW_Animation;
    -webkit-transform-origin: 50% 50%;
            transform-origin: 50% 50%;
    transform-box: fill-box;
    -webkit-transform: scale(1, 1);
            transform: scale(1, 1)
}
#el_ncY60zfhSGg {
    -webkit-animation-name: el_ncY60zfhSGg_Animation;
            animation-name: el_ncY60zfhSGg_Animation;
    opacity: 1
}
#el_ncY60zfhSGg_wA2QBNzaD {
    -webkit-animation-name: el_ncY60zfhSGg_wA2QBNzaD_Animation;
            animation-name: el_ncY60zfhSGg_wA2QBNzaD_Animation;
    -webkit-transform-origin: 50% 50%;
            transform-origin: 50% 50%;
    transform-box: fill-box;
    -webkit-transform: scale(1, 1);
            transform: scale(1, 1)
}
#el_K6-ZeaMsWjG {
    -webkit-animation-name: el_K6-ZeaMsWjG_Animation;
            animation-name: el_K6-ZeaMsWjG_Animation;
    opacity: 1
}
#el_K6-ZeaMsWjG_0vIdtyPDK {
    -webkit-animation-name: el_K6-ZeaMsWjG_0vIdtyPDK_Animation;
            animation-name: el_K6-ZeaMsWjG_0vIdtyPDK_Animation;
    -webkit-transform-origin: 50% 50%;
            transform-origin: 50% 50%;
    transform-box: fill-box;
    -webkit-transform: scale(1, 1);
            transform: scale(1, 1)
}
#el_kkn6NLvaQ4u {
    -webkit-animation-name: el_kkn6NLvaQ4u_Animation;
            animation-name: el_kkn6NLvaQ4u_Animation;
    opacity: 1
}
#el_kkn6NLvaQ4u_qOLAhUb7- {
    -webkit-animation-name: el_kkn6NLvaQ4u_qOLAhUb7-_Animation;
            animation-name: el_kkn6NLvaQ4u_qOLAhUb7-_Animation;
    -webkit-transform-origin: 50% 50%;
            transform-origin: 50% 50%;
    transform-box: fill-box;
    -webkit-transform: scale(1, 1);
            transform: scale(1, 1)
}</style><style/>
<g id="el_TXABU5FkxS_QfsZCE8AI" data-animator-group="true" data-animator-type="2"><g id="el_TXABU5FkxS">
	<g id="el_C1wAmf-a5B">
		<path d="M387.802,387.463c-4.206,0-7.613,3.409-7.613,7.613v20.175c0,4.205,3.408,7.613,7.613,7.613&#xA;&#9;&#9;&#9;c4.206,0,7.613-3.409,7.613-7.613v-20.175C395.415,390.872,392.006,387.463,387.802,387.463z" id="el_w2QdRNy9D3"/>
	</g>
</g></g>
<g id="el_uqVVckPI6y_LObT0r1NP" data-animator-group="true" data-animator-type="2"><g id="el_uqVVckPI6y">
	<g id="el_D45IdpsQAb">
		<path d="M387.802,441.78c-4.206,0-7.613,3.409-7.613,7.613v20.175c0,4.205,3.408,7.613,7.613,7.613&#xA;&#9;&#9;&#9;c4.206,0,7.613-3.409,7.613-7.613v-20.175C395.415,445.189,392.006,441.78,387.802,441.78z" id="el_wyCBJkC-_0"/>
	</g>
</g></g>
<g id="el_Lv6jL5RguQ_EmSv6gJPa" data-animator-group="true" data-animator-type="2"><g id="el_Lv6jL5RguQ">
	<g id="el_6_yTn_vXiR">
		<path d="M425.047,424.709h-20.175c-4.206,0-7.613,3.409-7.613,7.613c0,4.205,3.408,7.613,7.613,7.613h20.175&#xA;&#9;&#9;&#9;c4.206,0,7.613-3.409,7.613-7.613C432.66,428.118,429.253,424.709,425.047,424.709z" id="el_7X9Wb0tEFJ"/>
	</g>
</g></g>
<g id="el_FznawpWGaT_k1b5_iE_3" data-animator-group="true" data-animator-type="2"><g id="el_FznawpWGaT">
	<g id="el_4Weksih32z">
		<path d="M370.73,424.709h-20.174c-4.206,0-7.613,3.409-7.613,7.613c0,4.205,3.408,7.613,7.613,7.613h20.174&#xA;&#9;&#9;&#9;c4.206,0,7.613-3.409,7.613-7.613C378.343,428.118,374.935,424.709,370.73,424.709z" id="el_eCwEZRPJHi"/>
	</g>
</g></g>
<g id="el_angcWKLbG4_OP4ZwWNzg" data-animator-group="true" data-animator-type="2"><g id="el_angcWKLbG4">
	<g id="el_gg4i4ntHJp">
		<path d="M357.868,201.357c-4.117-0.85-8.143,1.803-8.992,5.921c-2.835,13.768-12.084,24.246-29.11,32.976&#xA;&#9;&#9;&#9;c-5.973,3.063-12.732,5.778-19.897,8.223c2.655-4.824,4.721-10.411,6.06-16.924c3.452-16.799,0.159-30.236-9.79-39.937&#xA;&#9;&#9;&#9;C283.87,179.65,262,174.393,231.15,175.993c-21.041,1.09-38.874,5.018-41.075,5.518c-24.308,4.321-45.164,6.146-63.085,6.146&#xA;&#9;&#9;&#9;c-72.656-0.004-96.784-30.019-104.334-45.304c-6.846-13.86-8.104-29.957-3.637-46.548c4.418-16.41,14.406-32.364,28.127-44.922&#xA;&#9;&#9;&#9;c3.101-2.838,3.314-7.655,0.475-10.756c-2.839-3.101-7.656-3.314-10.756-0.475C21.036,54.138,9.476,72.674,4.315,91.845&#xA;&#9;&#9;&#9;c-5.443,20.222-3.823,40.018,4.689,57.249c10.678,21.62,31.562,37.588,60.393,46.18c32.336,9.637,73.898,10.037,123.531,1.194&#xA;&#9;&#9;&#9;c0.127-0.022,0.256-0.049,0.382-0.078c19.321-4.467,73.549-12.074,92.205,6.132c6.073,5.926,7.872,14.42,5.499,25.964&#xA;&#9;&#9;&#9;c-4.92,23.933-22.021,33.24-63.097,34.335c-4.204,0.113-7.52,3.611-7.407,7.814c0.111,4.134,3.496,7.41,7.607,7.41&#xA;&#9;&#9;&#9;c0.069,0,0.138-0.001,0.207-0.002c12.292-0.328,24.398-1.297,35.314-4.047c47.025-10.448,92.13-24.682,100.153-63.648&#xA;&#9;&#9;&#9;C364.638,206.231,361.987,202.205,357.868,201.357z" id="el_uRoMj1EB4L"/>
	</g>
</g></g>
<g id="el_GSP86Uejf40_7l0r_Nz0a" data-animator-group="true" data-animator-type="2"><g id="el_GSP86Uejf40">
	<g id="el_52JBHxJcGSo">
		<path d="M367.959,109.666c-20.083-2.601-42.537-3.919-66.737-3.919c-21.874,0-43.704,1.626-64.816,3.198&#xA;&#9;&#9;&#9;c-28.221,2.101-57.16,4.25-73.166,0.4c-0.447-0.161-0.913-0.28-1.397-0.356c-4.232-1.17-7.444-2.815-9.318-5.072&#xA;&#9;&#9;&#9;c-0.801-0.964-3.237-3.898-0.993-12.37c7.187-27.126,42.741-39.815,71.303-45.683c32.533-6.683,63.732-6.197,64.032-6.196&#xA;&#9;&#9;&#9;c3.642,0.066,6.851-2.476,7.596-6.061c0.745-3.583-1.164-7.191-4.548-8.588c-1.307-0.54-32.517-13.304-75.769-20.448&#xA;&#9;&#9;&#9;C173.911-2.074,115.436-4.77,65.373,20.129c-3.765,1.873-5.299,6.443-3.426,10.207c1.872,3.765,6.443,5.299,10.207,3.426&#xA;&#9;&#9;&#9;C118.472,10.726,173.4,13.313,211.322,19.537c12.569,2.064,24.156,4.652,34.219,7.266c-40.575,4.769-97.628,18.96-108.725,60.844&#xA;&#9;&#9;&#9;c-1.47,5.55-1.799,10.575-1.014,15.055c-13.555-6.005-24.617-17.444-24.617-40.064c0-4.205-3.409-7.613-7.613-7.613&#xA;&#9;&#9;&#9;c-4.205,0-7.613,3.409-7.613,7.613c0,44.766,34.565,58.108,63.654,61.403c7.976,1.956,17.635,2.686,28.64,2.686&#xA;&#9;&#9;&#9;c14.4,0,31.094-1.243,49.286-2.598c20.833-1.551,42.377-3.156,63.684-3.156c23.548,0,45.345,1.276,64.782,3.793&#xA;&#9;&#9;&#9;c4.155,0.533,7.987-2.403,8.527-6.573C375.072,114.023,372.13,110.206,367.959,109.666z" id="el_L566XxnPEXf"/>
	</g>
</g></g>
<g id="el_F74_5LJbhyC_MLaevwzuW" data-animator-group="true" data-animator-type="2"><g id="el_F74_5LJbhyC">
	<g id="el_x5mioGWXSRu">
		<path d="M497.443,175.676c-9.686-16.583-24.623-30.442-44.396-41.192c-3.695-2.009-8.317-0.641-10.325,3.052&#xA;&#9;&#9;&#9;c-2.009,3.694-0.643,8.317,3.052,10.325c33.071,17.98,49.841,44.895,49.841,79.999c0,39.206-20.845,73.382-55.761,91.422&#xA;&#9;&#9;&#9;c-3.737,1.93-5.199,6.523-3.27,10.258c1.352,2.618,4.013,4.12,6.77,4.12c1.177,0,2.371-0.274,3.489-0.851&#xA;&#9;&#9;&#9;c40.074-20.704,63.998-59.937,63.998-104.949C510.841,208.455,506.333,190.898,497.443,175.676z" id="el_MxVKBjBsigE"/>
	</g>
</g></g>
<g id="el_16hxdg-gDyu">
	<g id="el_4pvPGRFhAuO">
		<g id="el_ncY60zfhSGg_wA2QBNzaD" data-animator-group="true" data-animator-type="2"><path d="M422.301,334.759c-0.966-4.092-5.073-6.628-9.16-5.657c-9.785,2.313-20.115,3.486-30.708,3.486&#xA;&#9;&#9;&#9;c-38.272,0-72.634,0.002-95.239,10.542c-24.12,8.072-52.532,25.901-60.939,52.174c-1.282,4.005,0.926,8.29,4.93,9.571&#xA;&#9;&#9;&#9;c0.771,0.247,1.553,0.364,2.323,0.364c3.222,0,6.214-2.062,7.249-5.295c2.636-8.237,9.364-18.108,21.034-26.928&#xA;&#9;&#9;&#9;c-2.551,11.131-1.314,24.603,3.745,40.753c4.985,15.913,3.903,30.303-3.217,42.768c-11.128,19.483-34.49,30.813-49.23,36.296&#xA;&#9;&#9;&#9;c5.507-24.022,2.193-46.009-9.729-62.994c-14.683-20.92-41.214-32.441-74.705-32.441c-17.323,0-32.43-4.551-43.686-13.161&#xA;&#9;&#9;&#9;c-9.898-7.572-16.651-18.287-19.013-30.171c-2.404-12.094-0.209-24.892,6.18-36.04c7.18-12.527,19.306-22.597,35.067-29.12&#xA;&#9;&#9;&#9;c11.475-4.749,24.813-7.844,40.779-9.461c4.183-0.423,7.232-4.159,6.807-8.342c-0.423-4.184-4.162-7.228-8.342-6.807&#xA;&#9;&#9;&#9;c-17.461,1.769-32.202,5.217-45.067,10.54c-42.572,17.617-55.968,53.978-50.359,82.198c3.085,15.519,11.855,29.475,24.697,39.297&#xA;&#9;&#9;&#9;c13.935,10.66,32.241,16.294,52.937,16.294c28.386,0,50.491,9.22,62.241,25.962c11.294,16.093,12.604,38.542,3.686,63.214&#xA;&#9;&#9;&#9;c-0.948,2.622-0.386,5.554,1.465,7.64c1.463,1.649,3.545,2.561,5.695,2.561c0.57,0,1.146-0.064,1.716-0.196&#xA;&#9;&#9;&#9;c2.106-0.487,51.829-12.342,72.048-47.659c9.335-16.306,10.869-34.787,4.559-54.931c-6.1-19.47-5.807-33.368,0.892-42.486&#xA;&#9;&#9;&#9;c2.966-4.033,7.24-7.2,12.554-9.696c0.027-0.012,0.053-0.027,0.08-0.04c19.621-9.176,53.457-9.181,88.843-9.181&#xA;&#9;&#9;&#9;c11.77,0,23.28-1.31,34.211-3.894C420.736,342.952,423.269,338.851,422.301,334.759z" id="el_ncY60zfhSGg"/></g>
	</g>
</g>
<g id="el_K6-ZeaMsWjG_0vIdtyPDK" data-animator-group="true" data-animator-type="2"><g id="el_K6-ZeaMsWjG">
	<g id="el_mgRVjIWatdu">
		<path d="M480.557,68.196l-18.124-3.675c-14.895-3.02-26.471-14.595-29.491-29.491l-3.675-18.124&#xA;&#9;&#9;&#9;c-1.495-7.371-7.791-12.518-15.311-12.518c-7.52,0-13.815,5.148-15.31,12.518l-3.675,18.124&#xA;&#9;&#9;&#9;c-3.02,14.895-14.595,26.471-29.491,29.49l-18.124,3.675c-7.371,1.494-12.517,7.79-12.517,15.311&#xA;&#9;&#9;&#9;c0,7.52,5.147,13.816,12.517,15.311l18.124,3.675c14.896,3.02,26.471,14.595,29.491,29.491l3.675,18.124&#xA;&#9;&#9;&#9;c1.495,7.371,7.791,12.517,15.31,12.517c7.52,0,13.816-5.147,15.311-12.517l3.675-18.124c3.02-14.894,14.596-26.47,29.491-29.49&#xA;&#9;&#9;&#9;l18.124-3.675c7.371-1.494,12.517-7.79,12.517-15.311S487.928,69.691,480.557,68.196z M477.803,83.807&#xA;&#9;&#9;&#9;c-0.019,0.013-0.106,0.054-0.272,0.087l-18.124,3.675c-20.903,4.239-37.149,20.485-41.388,41.389l-3.675,18.124&#xA;&#9;&#9;&#9;c-0.032,0.162-0.072,0.248-0.064,0.248c-0.129,0.091-0.516,0.091-0.622,0.024c-0.013-0.019-0.054-0.106-0.087-0.272l-3.675-18.124&#xA;&#9;&#9;&#9;c-4.238-20.904-20.484-37.15-41.388-41.389l-18.124-3.675c-0.148-0.029-0.232-0.066-0.246-0.066c-0.002,0-0.002,0-0.002,0.002&#xA;&#9;&#9;&#9;c-0.092-0.13-0.092-0.517-0.023-0.623c0.019-0.013,0.106-0.054,0.272-0.087l18.124-3.675&#xA;&#9;&#9;&#9;c20.905-4.238,37.151-20.484,41.388-41.388l3.675-18.124c0.038-0.186,0.064-0.25,0.064-0.249c0.13-0.092,0.518-0.091,0.621-0.023&#xA;&#9;&#9;&#9;c0.014,0.019,0.055,0.106,0.088,0.272l3.675,18.124c4.239,20.904,20.485,37.151,41.388,41.388l18.124,3.675&#xA;&#9;&#9;&#9;c0.172,0.035,0.246,0.075,0.248,0.064C477.872,83.313,477.872,83.7,477.803,83.807z" id="el_gByDYIErAml"/>
	</g>
</g></g>
<g id="el_kkn6NLvaQ4u_qOLAhUb7-" data-animator-group="true" data-animator-type="2"><g id="el_kkn6NLvaQ4u">
	<g id="el_qRZOtAWOzTI">
		<path d="M253.142,294.657l-18.124-3.675c-14.895-3.02-26.471-14.596-29.491-29.491l-3.675-18.124&#xA;&#9;&#9;&#9;c-1.494-7.371-7.79-12.518-15.311-12.518s-13.817,5.148-15.311,12.518l-3.675,18.124c-3.02,14.895-14.596,26.471-29.491,29.491&#xA;&#9;&#9;&#9;l-18.124,3.675c-7.371,1.494-12.518,7.79-12.518,15.311c0,7.52,5.148,13.816,12.518,15.311l18.124,3.675&#xA;&#9;&#9;&#9;c14.895,3.02,26.471,14.596,29.491,29.491l3.675,18.124c1.494,7.371,7.79,12.518,15.311,12.518c7.52,0,13.816-5.148,15.311-12.518&#xA;&#9;&#9;&#9;l3.675-18.124c3.02-14.895,14.596-26.471,29.491-29.491l18.124-3.675c7.37-1.494,12.518-7.79,12.518-15.311&#xA;&#9;&#9;&#9;S260.512,296.151,253.142,294.657z M250.389,310.266c-0.019,0.013-0.106,0.054-0.272,0.087l-18.124,3.675&#xA;&#9;&#9;&#9;c-20.904,4.239-37.15,20.485-41.389,41.389l-3.675,18.124c-0.032,0.162-0.072,0.249-0.065,0.249&#xA;&#9;&#9;&#9;c-0.129,0.092-0.516,0.093-0.622,0.023c-0.013-0.019-0.054-0.106-0.087-0.272l-3.675-18.124&#xA;&#9;&#9;&#9;c-4.239-20.904-20.485-37.15-41.389-41.389l-18.124-3.675c-0.148-0.03-0.233-0.066-0.247-0.066c-0.002,0-0.002,0-0.002,0.001&#xA;&#9;&#9;&#9;c-0.091-0.13-0.091-0.516-0.023-0.622c0.019-0.013,0.106-0.054,0.272-0.087l18.124-3.675c20.904-4.239,37.15-20.485,41.389-41.389&#xA;&#9;&#9;&#9;l3.675-18.124c0.033-0.162,0.072-0.249,0.065-0.249c0.131-0.092,0.517-0.091,0.622-0.023c0.013,0.019,0.054,0.106,0.087,0.272&#xA;&#9;&#9;&#9;l3.675,18.124c4.239,20.904,20.485,37.15,41.389,41.389l18.124,3.675c0.172,0.035,0.253,0.071,0.249,0.064&#xA;&#9;&#9;&#9;C250.456,309.774,250.456,310.16,250.389,310.266z" id="el_qde-MvYbgme"/>
	</g>
</g></g>
<g id="el_gaKzyrssv3t">
</g>
<g id="el_cOo_L7rVcd3">
</g>
<g id="el_IaWBmgg0N27">
</g>
<g id="el_2MWyJRpadh_">
</g>
<g id="el_7buI7_8VB-L">
</g>
<g id="el_bkEccO_Ks2l">
</g>
<g id="el_Zj2r9826ePj">
</g>
<g id="el_u0EJ3uJjTC5">
</g>
<g id="el_JTemakDVAGn">
</g>
<g id="el_7sL6iZxnJDL">
</g>
<g id="el_ErOgMwYj-Ag">
</g>
<g id="el_6FzdnN9yRIN">
</g>
<g id="el_liGhJkKeqee">
</g>
<g id="el_hXJNeiufPPU">
</g>
<g id="el_3CRClqs4Ap-">
</g>
<script>(function(){var a=document.querySelector('#el_MhygtD1Wn'),b=a.querySelectorAll('style'),c=function(d){b.forEach(function(f){var g=f.textContent;g&amp;&amp;(f.textContent=g.replace(/transform-box:[^;\r\n]*/gi,'transform-box: '+d))})};c('initial'),window.requestAnimationFrame(function(){return c('fill-box')})})();</script></svg>